<svg width="102" height="38" viewBox="0 0 102 38" fill="none" xmlns="http://www.w3.org/2000/svg">
<g filter="url(#filter0_d_60_131)">
<path d="M82 0C87.5228 5.15406e-07 92 4.47715 92 10V12L98 14.5L92 18V20C92 25.5228 87.5228 30 82 30H14C8.47715 30 4 25.5228 4 20V10C4 4.47715 8.47715 0 14 0H82Z" fill="#222222"/>
</g>
<path d="M11.4779 20.9823C11.3419 20.9823 11.2286 20.9087 11.1379 20.7613C11.0699 20.6933 11.0246 20.597 11.0019 20.4723C10.9906 20.359 11.0302 20.1493 11.1209 19.8433C11.2116 19.526 11.3646 19.0443 11.5799 18.3983C11.6932 17.9677 11.7839 17.656 11.8519 17.4633C11.9199 17.2593 11.9539 17.112 11.9539 17.0213C11.9539 16.8967 11.9652 16.7947 11.9879 16.7153C12.0219 16.6247 12.0389 16.5397 12.0389 16.4603C12.1069 16.4603 12.1749 16.398 12.2429 16.2733C12.3109 16.1487 12.3676 15.9787 12.4129 15.7633C12.4582 15.5707 12.4979 15.4177 12.5319 15.3043C12.5772 15.1797 12.5999 15.0947 12.5999 15.0493C12.6566 14.9587 12.7132 14.817 12.7699 14.6243C12.8379 14.4317 12.9399 14.1993 13.0759 13.9273C13.1666 13.5873 13.2686 13.236 13.3819 12.8733C13.4952 12.4993 13.6086 12.1537 13.7219 11.8363C13.8466 11.5077 13.9486 11.2527 14.0279 11.0713C14.1526 10.72 14.2489 10.4763 14.3169 10.3403C14.3849 10.193 14.3849 10.0967 14.3169 10.0513C14.2376 9.99467 14.2206 9.89833 14.2659 9.76233C14.3112 9.62633 14.4359 9.47333 14.6399 9.30333C14.7646 9.156 14.8722 9.054 14.9629 8.99733C15.0536 8.92933 15.1669 8.89533 15.3029 8.89533C15.4502 8.89533 15.6599 8.90667 15.9319 8.92933C16.1359 8.94067 16.3512 8.94633 16.5779 8.94633C16.8159 8.94633 16.9632 8.94633 17.0199 8.94633C17.1219 8.99167 17.2466 9.04267 17.3939 9.09933C17.5412 9.14467 17.6716 9.19 17.7849 9.23533C17.9096 9.28067 17.9719 9.32033 17.9719 9.35433C17.9719 9.42233 17.9946 9.46767 18.0399 9.49033C18.0966 9.50167 18.1532 9.513 18.2099 9.52433C18.2892 9.52433 18.3969 9.58667 18.5329 9.71133C18.6689 9.82467 18.8106 9.972 18.9579 10.1533C19.1052 10.3233 19.2186 10.5047 19.2979 10.6973C19.3886 10.89 19.4566 11.0713 19.5019 11.2413C19.5586 11.4113 19.5586 11.655 19.5019 11.9723C19.4906 12.1423 19.4622 12.3123 19.4169 12.4823C19.3829 12.6523 19.3432 12.7657 19.2979 12.8223C19.2299 12.8677 19.1676 12.9243 19.1109 12.9923C19.0542 13.0603 19.0259 13.1227 19.0259 13.1793C19.0259 13.2247 18.9862 13.3153 18.9069 13.4513C18.8276 13.576 18.7256 13.7233 18.6009 13.8933C18.4762 14.0633 18.3402 14.2333 18.1929 14.4033C18.0456 14.5733 17.9039 14.7207 17.7679 14.8453C17.6206 15.0267 17.4449 15.1967 17.2409 15.3553C17.0482 15.514 16.8726 15.6443 16.7139 15.7463C16.4192 15.8823 16.0906 16.0183 15.7279 16.1543C15.3766 16.2903 15.0366 16.4037 14.7079 16.4943C14.3906 16.585 14.1242 16.6247 13.9089 16.6133C13.5802 16.6587 13.3649 16.704 13.2629 16.7493C13.1722 16.7833 13.1042 16.8797 13.0589 17.0383C13.0022 17.1857 12.9456 17.3387 12.8889 17.4973C12.8436 17.6447 12.8209 17.7467 12.8209 17.8033C12.7982 17.8487 12.7416 17.9903 12.6509 18.2283C12.5716 18.455 12.4809 18.7213 12.3789 19.0273C12.2882 19.3333 12.1976 19.6337 12.1069 19.9283C12.0162 20.223 11.9482 20.4667 11.9029 20.6593C11.8576 20.818 11.8009 20.9087 11.7329 20.9313C11.6649 20.9653 11.5799 20.9823 11.4779 20.9823ZM13.5859 15.7123C13.6312 15.7577 13.8069 15.7633 14.1129 15.7293C14.4189 15.6953 14.7476 15.6103 15.0989 15.4743C15.3256 15.395 15.5522 15.2987 15.7789 15.1853C16.0169 15.072 16.2436 14.9473 16.4589 14.8113C16.5722 14.732 16.7422 14.5903 16.9689 14.3863C17.1956 14.1823 17.4222 13.9387 17.6489 13.6553C17.6829 13.5987 17.7396 13.491 17.8189 13.3323C17.9096 13.1623 17.9889 13.0037 18.0569 12.8563C18.1589 12.6977 18.2609 12.4653 18.3629 12.1593C18.4649 11.842 18.4876 11.5813 18.4309 11.3773C18.3742 11.0827 18.2269 10.8107 17.9889 10.5613C17.7509 10.3007 17.4676 10.125 17.1389 10.0343C16.8896 9.989 16.6799 9.96633 16.5099 9.96633C16.3512 9.96633 16.1756 9.98333 15.9829 10.0173C15.8016 10.074 15.6656 10.1533 15.5749 10.2553C15.4956 10.3573 15.3879 10.5727 15.2519 10.9013C15.1726 11.06 15.0592 11.3037 14.9119 11.6323C14.7646 11.9497 14.6399 12.25 14.5379 12.5333C14.3339 13.2813 14.1299 13.899 13.9259 14.3863C13.7332 14.8623 13.6142 15.1627 13.5689 15.2873C13.5802 15.412 13.5746 15.5027 13.5519 15.5593C13.5292 15.6047 13.5406 15.6557 13.5859 15.7123Z" fill="white" fill-opacity="0.6"/>
<path d="M19.852 19.9113C19.7046 19.9113 19.5856 19.883 19.495 19.8263C19.4156 19.7697 19.3136 19.6903 19.189 19.5883C18.9736 19.3617 18.8206 19.1463 18.73 18.9423C18.6393 18.727 18.611 18.523 18.645 18.3303C18.679 18.2397 18.6903 18.1547 18.679 18.0753C18.679 17.9847 18.679 17.9393 18.679 17.9393C18.6223 17.8827 18.6053 17.8487 18.628 17.8373C18.6506 17.8147 18.6733 17.7807 18.696 17.7353C18.764 17.7353 18.7866 17.673 18.764 17.5483C18.7413 17.4577 18.7866 17.2593 18.9 16.9533C19.0133 16.6473 19.155 16.3583 19.325 16.0863C19.393 15.973 19.495 15.8257 19.631 15.6443C19.767 15.4517 19.9143 15.2647 20.073 15.0833C20.243 14.8907 20.396 14.7377 20.532 14.6243C20.8153 14.3863 21.0646 14.2107 21.28 14.0973C21.4953 13.984 21.7276 13.899 21.977 13.8423C22.2263 13.7857 22.3963 13.7573 22.487 13.7573C22.589 13.7573 22.725 13.848 22.895 14.0293C23.1556 14.1427 23.3426 14.2787 23.456 14.4373C23.5806 14.596 23.66 14.8283 23.694 15.1343C23.728 15.4743 23.6996 15.8653 23.609 16.3073C23.5296 16.738 23.2633 17.2763 22.81 17.9223C22.5266 18.3303 22.266 18.6363 22.028 18.8403C21.79 19.033 21.5066 19.2257 21.178 19.4183C20.94 19.577 20.7246 19.696 20.532 19.7753C20.3393 19.8433 20.1126 19.8887 19.852 19.9113ZM21.484 18.1093C21.756 17.8033 21.9713 17.5143 22.13 17.2423C22.3 16.9703 22.4586 16.6247 22.606 16.2053C22.6513 16.0807 22.6796 15.9277 22.691 15.7463C22.7023 15.5537 22.6966 15.378 22.674 15.2193C22.6626 15.0493 22.623 14.953 22.555 14.9303C22.419 14.851 22.2546 14.8283 22.062 14.8623C21.8693 14.885 21.6596 14.9927 21.433 15.1853C21.0816 15.48 20.7756 15.8483 20.515 16.2903C20.2543 16.721 19.9993 17.214 19.75 17.7693C19.58 18.1773 19.5403 18.506 19.631 18.7553C19.733 18.9933 19.9426 19.0783 20.26 19.0103C20.5886 18.931 20.9966 18.6307 21.484 18.1093Z" fill="white" fill-opacity="0.6"/>
<path d="M25.8151 19.4013C25.6451 19.4013 25.4865 19.2993 25.3391 19.0953C25.2031 18.88 25.1011 18.608 25.0331 18.2793C24.9765 17.9393 24.9595 17.588 24.9821 17.2253C24.9821 16.8627 24.9991 16.5737 25.0331 16.3583C25.0785 16.1317 25.1238 15.9107 25.1691 15.6953C25.2031 15.6273 25.2201 15.5707 25.2201 15.5253C25.2315 15.48 25.2428 15.4063 25.2541 15.3043C25.2768 15.2023 25.3165 15.0323 25.3731 14.7943C25.4185 14.6017 25.4638 14.443 25.5091 14.3183C25.5545 14.1937 25.5998 14.1087 25.6451 14.0633C25.7018 13.9953 25.7755 13.9557 25.8661 13.9443C25.9568 13.9217 26.0475 13.9273 26.1381 13.9613C26.2288 13.9953 26.3025 14.0577 26.3591 14.1483C26.4271 14.205 26.4611 14.3353 26.4611 14.5393C26.4725 14.732 26.4611 14.936 26.4271 15.1513C26.3931 15.3553 26.3421 15.5027 26.2741 15.5933C26.2515 15.65 26.2231 15.7973 26.1891 16.0353C26.1665 16.2733 26.1381 16.5227 26.1041 16.7833C26.0815 17.044 26.0531 17.2537 26.0191 17.4123C25.9851 17.6163 26.0021 17.7807 26.0701 17.9053C26.1495 18.03 26.2911 18.0357 26.4951 17.9223C26.7105 17.7977 26.9938 17.4803 27.3451 16.9703C27.5831 16.6303 27.7645 16.3527 27.8891 16.1373C28.0138 15.922 28.1101 15.7237 28.1781 15.5423C28.2575 15.3497 28.3368 15.1457 28.4161 14.9303C28.4728 14.749 28.5238 14.6017 28.5691 14.4883C28.6258 14.3637 28.6768 14.2843 28.7221 14.2503C28.8015 14.1937 28.8921 14.171 28.9941 14.1823C29.1075 14.1937 29.2321 14.2447 29.3681 14.3353C29.5041 14.4713 29.5721 14.6357 29.5721 14.8283C29.5721 15.0097 29.5041 15.2363 29.3681 15.5083C29.2775 15.6897 29.1868 15.922 29.0961 16.2053C29.0168 16.4887 28.9488 16.7777 28.8921 17.0723C28.8468 17.3557 28.8241 17.588 28.8241 17.7693C28.8241 17.996 28.8525 18.132 28.9091 18.1773C28.9771 18.2113 29.0565 18.2283 29.1471 18.2283C29.2831 18.2283 29.4475 18.1773 29.6401 18.0753C29.8328 17.9733 30.0481 17.7977 30.2861 17.5483C30.3881 17.4463 30.5128 17.299 30.6601 17.1063C30.8075 16.9023 30.9491 16.6927 31.0851 16.4773C31.2325 16.2507 31.3515 16.0523 31.4421 15.8823C31.5441 15.7123 31.5951 15.6047 31.5951 15.5593C31.5951 15.4913 31.6461 15.395 31.7481 15.2703C31.8161 15.1797 31.8671 15.1117 31.9011 15.0663C31.9465 15.0097 32.0258 14.953 32.1391 14.8963C32.2298 14.851 32.3091 14.8453 32.3771 14.8793C32.4451 14.902 32.5188 14.9587 32.5981 15.0493C32.6548 15.0947 32.6831 15.1627 32.6831 15.2533C32.6945 15.344 32.7001 15.4573 32.7001 15.5933C32.6661 15.718 32.6095 15.8823 32.5301 16.0863C32.4621 16.279 32.3828 16.466 32.2921 16.6473C32.2128 16.8173 32.1448 16.9363 32.0881 17.0043C32.0428 17.0497 31.9635 17.1347 31.8501 17.2593C31.7368 17.3727 31.6348 17.4973 31.5441 17.6333C31.2608 17.9733 31.0568 18.1943 30.9321 18.2963C30.8075 18.3983 30.6998 18.4947 30.6091 18.5853C30.3711 18.8233 30.1218 19.0047 29.8611 19.1293C29.6005 19.2427 29.3511 19.2993 29.1131 19.2993C28.8865 19.2993 28.6938 19.2427 28.5351 19.1293C28.1838 18.948 28.0081 18.642 28.0081 18.2113C28.0081 18.1207 27.9911 18.0413 27.9571 17.9733C27.9345 17.894 27.9231 17.8543 27.9231 17.8543C27.8778 17.8543 27.8155 17.8657 27.7361 17.8883C27.6681 17.911 27.5945 17.9903 27.5151 18.1263C27.4131 18.319 27.2488 18.5173 27.0221 18.7213C26.8068 18.914 26.5858 19.0783 26.3591 19.2143C26.1325 19.339 25.9511 19.4013 25.8151 19.4013Z" fill="white" fill-opacity="0.6"/>
<path d="M34.9204 20.2173C34.4217 20.2173 34.0137 20.0303 33.6964 19.6563C33.379 19.271 33.226 18.795 33.2374 18.2283C33.26 17.8203 33.3394 17.384 33.4754 16.9193C33.6227 16.4433 33.8154 15.99 34.0534 15.5593C34.2914 15.1173 34.552 14.732 34.8354 14.4033C35.1187 14.0747 35.4134 13.8423 35.7194 13.7063C35.8327 13.6497 35.9517 13.6043 36.0764 13.5703C36.2124 13.5363 36.3484 13.5193 36.4844 13.5193C36.609 13.5193 36.7394 13.542 36.8754 13.5873C37.0114 13.6213 37.1247 13.661 37.2154 13.7063C37.408 13.7857 37.5554 13.882 37.6574 13.9953C37.7594 14.1087 37.85 14.2843 37.9294 14.5223C37.9634 14.7377 37.9804 14.8907 37.9804 14.9813C37.9804 15.072 37.952 15.208 37.8954 15.3893C37.7594 15.7973 37.5837 16.1487 37.3684 16.4433C37.153 16.738 36.864 16.9873 36.5014 17.1913C36.4107 17.248 36.303 17.2933 36.1784 17.3273C36.065 17.35 35.946 17.3613 35.8214 17.3613C35.5947 17.3613 35.3737 17.3217 35.1584 17.2423C34.9544 17.1517 34.79 17.0213 34.6654 16.8513L34.5464 16.7153L34.4954 16.8513C34.382 17.1573 34.2914 17.4407 34.2234 17.7013C34.1667 17.962 34.1384 18.2 34.1384 18.4153C34.1384 18.5513 34.1497 18.6817 34.1724 18.8063C34.2064 18.931 34.2517 19.0387 34.3084 19.1293C34.3537 19.1973 34.4274 19.2483 34.5294 19.2823C34.6427 19.305 34.7617 19.3163 34.8864 19.3163C34.9657 19.3163 35.045 19.3163 35.1244 19.3163C35.215 19.305 35.3 19.2823 35.3794 19.2483C35.572 19.1803 35.725 19.1067 35.8384 19.0273C35.963 18.948 36.0877 18.863 36.2124 18.7723L36.2804 18.7383H36.2634C36.3994 18.6703 36.5184 18.6023 36.6204 18.5343C36.7337 18.4663 36.7904 18.4323 36.7904 18.4323C36.8357 18.4323 36.881 18.404 36.9264 18.3473C37.017 18.302 37.1304 18.319 37.2664 18.3983C37.4137 18.4777 37.4874 18.5797 37.4874 18.7043C37.476 18.761 37.425 18.8517 37.3344 18.9763C37.2437 19.0897 37.1417 19.1973 37.0284 19.2993C36.9264 19.4013 36.8414 19.458 36.7734 19.4693C36.762 19.4807 36.7224 19.5033 36.6544 19.5373C36.5864 19.56 36.541 19.5827 36.5184 19.6053H36.5354C36.4334 19.7413 36.3314 19.8093 36.2294 19.8093H36.0934C36.048 19.8887 35.9007 19.9793 35.6514 20.0813C35.402 20.172 35.1584 20.2173 34.9204 20.2173ZM35.6854 16.4773C35.8894 16.4773 36.065 16.4207 36.2124 16.3073C36.371 16.1827 36.507 16.0467 36.6204 15.8993C36.847 15.5933 36.9774 15.2987 37.0114 15.0153C37.0567 14.7207 37.0227 14.5167 36.9094 14.4033C36.8414 14.3693 36.779 14.3523 36.7224 14.3523C36.677 14.341 36.5807 14.358 36.4334 14.4033C36.3314 14.426 36.1897 14.511 36.0084 14.6583C35.827 14.8057 35.6457 14.97 35.4644 15.1513C35.2944 15.3327 35.164 15.4857 35.0734 15.6103L34.8524 15.9673C34.943 15.9333 35.028 15.9163 35.1074 15.9163C35.198 15.905 35.249 15.9107 35.2604 15.9333C35.2604 16.0353 35.2774 16.1317 35.3114 16.2223C35.3567 16.3017 35.4077 16.364 35.4644 16.4093C35.5324 16.4547 35.606 16.4773 35.6854 16.4773Z" fill="white" fill-opacity="0.6"/>
<path d="M39.8537 19.6393C39.8197 19.6507 39.763 19.645 39.6837 19.6223C39.6043 19.5997 39.525 19.5713 39.4457 19.5373C39.3663 19.5033 39.3153 19.475 39.2927 19.4523C39.2473 19.407 39.202 19.339 39.1567 19.2483C39.1227 19.1577 39.1227 19.0273 39.1567 18.8573C39.1907 18.676 39.304 18.4437 39.4967 18.1603C39.5533 18.047 39.6213 17.877 39.7007 17.6503C39.78 17.4237 39.8593 17.1857 39.9387 16.9363C40.0293 16.6757 40.1087 16.4433 40.1767 16.2393C40.256 16.0353 40.3127 15.8937 40.3467 15.8143C40.3693 15.6217 40.358 15.4857 40.3127 15.4063C40.2787 15.3157 40.1823 15.2647 40.0237 15.2533C39.9103 15.2533 39.8197 15.242 39.7517 15.2193C39.695 15.1967 39.6667 15.0833 39.6667 14.8793C39.6893 14.7207 39.729 14.613 39.7857 14.5563C39.8537 14.4883 39.9443 14.4147 40.0577 14.3353C40.171 14.2787 40.2843 14.239 40.3977 14.2163C40.5223 14.1937 40.6413 14.188 40.7547 14.1993C40.868 14.2107 40.9587 14.2503 41.0267 14.3183C41.106 14.3637 41.157 14.4657 41.1797 14.6243C41.2023 14.7717 41.2137 14.9247 41.2137 15.0833C41.225 15.242 41.2363 15.361 41.2477 15.4403C41.361 15.3497 41.514 15.225 41.7067 15.0663C41.9107 14.8963 42.0863 14.7377 42.2337 14.5903C42.415 14.4657 42.6303 14.341 42.8797 14.2163C43.129 14.0803 43.3103 14.0123 43.4237 14.0123C43.5483 14.0123 43.673 14.0463 43.7977 14.1143C43.9223 14.171 44.0073 14.2447 44.0527 14.3353C44.166 14.528 44.217 14.698 44.2057 14.8453C44.2057 14.9927 44.1433 15.1457 44.0187 15.3043C43.9053 15.4517 43.7637 15.5537 43.5937 15.6103C43.435 15.667 43.333 15.6953 43.2877 15.6953C43.2197 15.6953 43.1347 15.6443 43.0327 15.5423C42.9307 15.4403 42.874 15.3553 42.8627 15.2873C42.8627 15.2533 42.789 15.2873 42.6417 15.3893C42.5057 15.48 42.3527 15.599 42.1827 15.7463C42.0127 15.8823 41.871 16.007 41.7577 16.1203C41.565 16.3583 41.361 16.6813 41.1457 17.0893C40.9303 17.4973 40.6753 17.9903 40.3807 18.5683C40.2447 18.8517 40.1483 19.0953 40.0917 19.2993C40.035 19.492 39.9557 19.6053 39.8537 19.6393Z" fill="white" fill-opacity="0.6"/>
<path d="M50.7768 20.0643C50.6295 20.0757 50.5105 20.0643 50.4198 20.0303C50.3292 19.985 50.2158 19.9227 50.0798 19.8433C49.8305 19.6507 49.6435 19.458 49.5188 19.2653C49.4055 19.0613 49.3545 18.863 49.3658 18.6703C49.3885 18.5683 49.3885 18.4777 49.3658 18.3983C49.3545 18.319 49.3488 18.2793 49.3488 18.2793C49.2808 18.2227 49.2582 18.1887 49.2808 18.1773C49.3035 18.1547 49.3205 18.1207 49.3318 18.0753C49.4225 18.0527 49.4338 17.9903 49.3658 17.8883C49.3318 17.7977 49.3488 17.5937 49.4168 17.2763C49.4962 16.9477 49.5982 16.6417 49.7228 16.3583C49.7795 16.2337 49.8588 16.0693 49.9608 15.8653C50.0742 15.6613 50.1988 15.4573 50.3348 15.2533C50.4708 15.038 50.5955 14.868 50.7088 14.7433C50.9582 14.46 51.1792 14.2503 51.3718 14.1143C51.5758 13.967 51.8025 13.848 52.0518 13.7573C52.2785 13.6667 52.4428 13.6157 52.5448 13.6043C52.6468 13.593 52.7885 13.661 52.9698 13.8083C53.2418 13.8877 53.4458 14.001 53.5818 14.1483C53.7292 14.2843 53.8425 14.4997 53.9218 14.7943C54.0125 15.123 54.0408 15.514 54.0068 15.9673C53.9842 16.4093 53.7915 16.9817 53.4288 17.6843C53.2135 18.1263 52.9982 18.4607 52.7828 18.6873C52.5788 18.914 52.3295 19.152 52.0348 19.4013C51.8195 19.5827 51.6212 19.7243 51.4398 19.8263C51.2585 19.9283 51.0375 20.0077 50.7768 20.0643ZM52.1368 18.0413C52.3635 17.7013 52.5392 17.3897 52.6638 17.1063C52.7998 16.8117 52.9075 16.4433 52.9868 16.0013C53.0095 15.8767 53.0152 15.7237 53.0038 15.5423C52.9925 15.3497 52.9642 15.174 52.9188 15.0153C52.8848 14.8567 52.8338 14.7717 52.7658 14.7603C52.6185 14.7037 52.4542 14.7037 52.2728 14.7603C52.0915 14.8057 51.8932 14.9417 51.6778 15.1683C51.4852 15.395 51.3095 15.65 51.1508 15.9333C51.0035 16.2167 50.8675 16.5283 50.7428 16.8683C50.6182 17.2083 50.4992 17.571 50.3858 17.9563C50.2725 18.387 50.2782 18.7157 50.4028 18.9423C50.5388 19.169 50.7598 19.2257 51.0658 19.1123C51.3718 18.9877 51.7288 18.6307 52.1368 18.0413Z" fill="white" fill-opacity="0.6"/>
<path d="M55.869 19.4183C55.8237 19.4183 55.7557 19.39 55.665 19.3333C55.5857 19.2653 55.5233 19.2087 55.478 19.1633C55.3987 19.0727 55.3477 18.982 55.325 18.8913C55.3137 18.8007 55.308 18.5967 55.308 18.2793C55.308 17.9167 55.3817 17.5257 55.529 17.1063C55.6763 16.6757 55.9257 16.075 56.277 15.3043L56.838 14.1143C56.8833 14.0237 56.923 13.9557 56.957 13.9103C57.0023 13.865 57.042 13.8197 57.076 13.7743C57.1213 13.7743 57.161 13.7743 57.195 13.7743C57.229 13.7743 57.246 13.7743 57.246 13.7743C57.3367 13.7743 57.4273 13.831 57.518 13.9443C57.6087 14.0463 57.6767 14.1597 57.722 14.2843C57.722 14.4317 57.6993 14.5847 57.654 14.7433C57.62 14.902 57.484 15.14 57.246 15.4573C57.1667 15.582 57.059 15.7917 56.923 16.0863C56.7983 16.381 56.7133 16.636 56.668 16.8513C56.6567 16.8627 56.634 16.9137 56.6 17.0043C56.566 17.0837 56.5263 17.1743 56.481 17.2763C56.447 17.3783 56.4073 17.4747 56.362 17.5653L56.277 17.9393L57.416 16.7663C57.9487 16.2337 58.3793 15.854 58.708 15.6273C59.0367 15.4007 59.2973 15.3043 59.49 15.3383C59.6827 15.3723 59.847 15.5253 59.983 15.7973C60.0623 15.922 60.119 16.0353 60.153 16.1373C60.1983 16.228 60.2267 16.3527 60.238 16.5113C60.2493 16.67 60.238 16.908 60.204 17.2253V18.2793C60.374 18.234 60.51 18.1943 60.612 18.1603C60.714 18.115 60.8217 18.0697 60.935 18.0243C61.037 17.979 61.156 17.9393 61.292 17.9053C61.428 17.86 61.598 17.8317 61.802 17.8203C61.7907 17.9677 61.7397 18.1263 61.649 18.2963C61.5583 18.455 61.445 18.608 61.309 18.7553C61.173 18.9027 61.02 19.0217 60.85 19.1123C60.6913 19.203 60.5327 19.2483 60.374 19.2483C60.2267 19.2483 60.0623 19.1747 59.881 19.0273C59.6997 18.88 59.5693 18.7157 59.49 18.5343C59.4447 18.4097 59.4163 18.2737 59.405 18.1263C59.405 17.979 59.405 17.707 59.405 17.3103V16.6813C59.405 16.5 59.3483 16.449 59.235 16.5283C59.133 16.5963 59.048 16.6587 58.98 16.7153C58.81 16.8627 58.6287 17.0327 58.436 17.2253C58.2547 17.418 58.0677 17.6163 57.875 17.8203C57.3537 18.3643 56.9173 18.7667 56.566 19.0273C56.226 19.288 55.9937 19.4183 55.869 19.4183Z" fill="white" fill-opacity="0.6"/>
<path d="M62.1453 21.7643C61.8053 21.7757 61.6127 21.5943 61.5673 21.2203C61.522 20.8463 61.6353 20.3647 61.9073 19.7753C61.9753 19.6507 62.0433 19.5317 62.1113 19.4183C62.1793 19.2937 62.219 19.1917 62.2303 19.1123C62.2643 19.0443 62.355 18.8687 62.5023 18.5853C62.661 18.2907 62.848 17.9393 63.0633 17.5313C63.29 17.1233 63.5223 16.6983 63.7603 16.2563C64.0097 15.8143 64.242 15.4007 64.4573 15.0153C64.6727 14.6187 64.854 14.29 65.0013 14.0293C65.1487 13.7687 65.2337 13.627 65.2563 13.6043C65.3017 13.6157 65.347 13.5873 65.3923 13.5193C65.449 13.44 65.483 13.3607 65.4943 13.2813C65.517 13.1907 65.5567 13.0943 65.6133 12.9923C65.6813 12.8903 65.738 12.828 65.7833 12.8053C65.806 12.7487 65.8343 12.6863 65.8683 12.6183C65.9137 12.5503 65.942 12.4937 65.9533 12.4483C65.9647 12.403 65.9873 12.3633 66.0213 12.3293C66.0553 12.284 66.078 12.2387 66.0893 12.1933C66.18 12.0913 66.299 11.9327 66.4463 11.7173C66.5937 11.4907 66.758 11.2357 66.9393 10.9523C67.132 10.669 67.319 10.38 67.5003 10.0853C67.693 9.79067 67.8687 9.513 68.0273 9.25233C68.186 8.99167 68.3163 8.77067 68.4183 8.58933C68.5203 8.408 68.577 8.29467 68.5883 8.24933C68.6223 8.07933 68.7357 8.01133 68.9283 8.04533C68.985 8 69.0757 7.98867 69.2003 8.01133C69.2003 8.01133 69.2117 8.03967 69.2343 8.09633C69.2683 8.14167 69.325 8.221 69.4043 8.33433C69.4837 8.43633 69.5177 8.53833 69.5063 8.64033C69.5063 8.74233 69.4893 8.85567 69.4553 8.98033C69.4327 9.12767 69.393 9.258 69.3363 9.37133C69.2797 9.47333 69.1777 9.62067 69.0303 9.81333C68.883 9.99467 68.6563 10.2837 68.3503 10.6803C68.2823 10.7823 68.2087 10.8843 68.1293 10.9863C68.0613 11.077 67.9933 11.162 67.9253 11.2413C67.8687 11.3093 67.8233 11.3717 67.7893 11.4283C67.7553 11.4737 67.7383 11.5077 67.7383 11.5303C67.727 11.5757 67.6873 11.6437 67.6193 11.7343C67.5627 11.8137 67.5003 11.9157 67.4323 12.0403C67.3643 12.1197 67.2737 12.2387 67.1603 12.3973C67.047 12.556 66.928 12.7203 66.8033 12.8903C66.69 13.0603 66.588 13.2133 66.4973 13.3493C66.4067 13.474 66.3613 13.5477 66.3613 13.5703C66.35 13.6043 66.333 13.644 66.3103 13.6893C66.299 13.7347 66.265 13.7743 66.2083 13.8083C66.163 13.797 66.129 13.8253 66.1063 13.8933C66.095 13.95 66.0893 13.9783 66.0893 13.9783C66.0893 14.069 65.942 14.3467 65.6473 14.8113C65.5227 15.038 65.3357 15.378 65.0863 15.8313C64.8483 16.2847 64.582 16.789 64.2873 17.3443C64.004 17.8883 63.7263 18.4267 63.4543 18.9593C63.1823 19.4807 62.95 19.934 62.7573 20.3193C62.576 20.7047 62.474 20.9597 62.4513 21.0843C62.406 21.345 62.3663 21.515 62.3323 21.5943C62.2983 21.685 62.236 21.7417 62.1453 21.7643Z" fill="white" fill-opacity="0.6"/>
<path d="M69.4907 19.9113C69.3433 19.9113 69.2243 19.883 69.1337 19.8263C69.0543 19.7697 68.9523 19.6903 68.8277 19.5883C68.6123 19.3617 68.4593 19.1463 68.3687 18.9423C68.278 18.727 68.2497 18.523 68.2837 18.3303C68.3177 18.2397 68.329 18.1547 68.3177 18.0753C68.3177 17.9847 68.3177 17.9393 68.3177 17.9393C68.261 17.8827 68.244 17.8487 68.2667 17.8373C68.2893 17.8147 68.312 17.7807 68.3347 17.7353C68.4027 17.7353 68.4253 17.673 68.4027 17.5483C68.38 17.4577 68.4253 17.2593 68.5387 16.9533C68.652 16.6473 68.7937 16.3583 68.9637 16.0863C69.0317 15.973 69.1337 15.8257 69.2697 15.6443C69.4057 15.4517 69.553 15.2647 69.7117 15.0833C69.8817 14.8907 70.0347 14.7377 70.1707 14.6243C70.454 14.3863 70.7033 14.2107 70.9187 14.0973C71.134 13.984 71.3663 13.899 71.6157 13.8423C71.865 13.7857 72.035 13.7573 72.1257 13.7573C72.2277 13.7573 72.3637 13.848 72.5337 14.0293C72.7943 14.1427 72.9813 14.2787 73.0947 14.4373C73.2193 14.596 73.2987 14.8283 73.3327 15.1343C73.3667 15.4743 73.3383 15.8653 73.2477 16.3073C73.1683 16.738 72.902 17.2763 72.4487 17.9223C72.1653 18.3303 71.9047 18.6363 71.6667 18.8403C71.4287 19.033 71.1453 19.2257 70.8167 19.4183C70.5787 19.577 70.3633 19.696 70.1707 19.7753C69.978 19.8433 69.7513 19.8887 69.4907 19.9113ZM71.1227 18.1093C71.3947 17.8033 71.61 17.5143 71.7687 17.2423C71.9387 16.9703 72.0973 16.6247 72.2447 16.2053C72.29 16.0807 72.3183 15.9277 72.3297 15.7463C72.341 15.5537 72.3353 15.378 72.3127 15.2193C72.3013 15.0493 72.2617 14.953 72.1937 14.9303C72.0577 14.851 71.8933 14.8283 71.7007 14.8623C71.508 14.885 71.2983 14.9927 71.0717 15.1853C70.7203 15.48 70.4143 15.8483 70.1537 16.2903C69.893 16.721 69.638 17.214 69.3887 17.7693C69.2187 18.1773 69.179 18.506 69.2697 18.7553C69.3717 18.9933 69.5813 19.0783 69.8987 19.0103C70.2273 18.931 70.6353 18.6307 71.1227 18.1093Z" fill="white" fill-opacity="0.6"/>
<path d="M78.2548 21.9683C78.1868 22.0137 78.1075 22.0023 78.0168 21.9343C77.9375 21.8663 77.8185 21.7417 77.6598 21.5603C77.5805 21.4697 77.5295 21.3733 77.5068 21.2713C77.4842 21.1693 77.4898 20.9767 77.5238 20.6933C77.5692 20.5687 77.5918 20.4497 77.5918 20.3363C77.6032 20.223 77.6088 20.1437 77.6088 20.0983C77.6088 20.0303 77.6258 19.8717 77.6598 19.6223C77.7052 19.373 77.7505 19.1123 77.7958 18.8403C77.8412 18.557 77.8808 18.3417 77.9148 18.1943C77.9148 18.183 77.9205 18.1547 77.9318 18.1093C77.9431 18.064 77.9545 18.0243 77.9658 17.9903C77.9885 17.8883 78.0168 17.7523 78.0508 17.5823C78.0962 17.4123 78.1358 17.2027 78.1698 16.9533C78.2265 16.738 78.2832 16.5227 78.3398 16.3073C78.3965 16.0807 78.4361 15.8937 78.4588 15.7463C78.3228 15.7463 78.1302 15.7577 77.8808 15.7803C77.6315 15.803 77.3708 15.837 77.0988 15.8823C76.8381 15.9163 76.6115 15.9503 76.4188 15.9843C76.2375 16.007 76.1355 16.0297 76.1128 16.0523C76.0675 16.075 76.0052 16.177 75.9258 16.3583C75.8578 16.5283 75.7842 16.7437 75.7048 17.0043C75.6255 17.2537 75.5632 17.5143 75.5178 17.7863C75.3818 18.3077 75.3082 18.846 75.2968 19.4013C75.2855 19.9453 75.3138 20.3477 75.3818 20.6083C75.4498 20.8803 75.4668 21.1013 75.4328 21.2713C75.4101 21.4413 75.3308 21.5547 75.1948 21.6113C74.9795 21.6227 74.7868 21.4583 74.6168 21.1183C74.4582 20.7897 74.3788 20.3477 74.3788 19.7923C74.3335 19.3277 74.3732 18.7383 74.4978 18.0243C74.6225 17.299 74.8095 16.4887 75.0588 15.5933C75.1495 15.2873 75.2741 14.9247 75.4328 14.5053C75.5915 14.086 75.7558 13.6723 75.9258 13.2643C76.1072 12.8563 76.2658 12.5163 76.4018 12.2443C76.5378 11.961 76.6228 11.8023 76.6568 11.7683C76.7248 11.791 76.7588 11.74 76.7588 11.6153C76.7588 11.5927 76.8042 11.5077 76.8948 11.3603C76.9855 11.213 77.0705 11.0543 77.1498 10.8843C77.2972 10.669 77.4728 10.4593 77.6768 10.2553C77.8808 10.04 78.0905 9.853 78.3058 9.69433C78.5325 9.52433 78.7365 9.40533 78.9178 9.33733C79.0878 9.26933 79.2578 9.23533 79.4278 9.23533C79.7112 9.23533 79.9888 9.36 80.2608 9.60933C80.5442 9.84733 80.7425 10.1137 80.8558 10.4083C81.0485 10.1817 81.2638 9.94933 81.5018 9.71133C81.7398 9.47333 81.9325 9.29767 82.0798 9.18433C82.3292 9.05967 82.5275 8.97467 82.6748 8.92933C82.8222 8.884 83.0148 8.86133 83.2528 8.86133C83.4682 8.86133 83.6098 8.88967 83.6778 8.94633C83.7572 8.99167 83.8705 9.08233 84.0178 9.21833C84.1765 9.38833 84.2672 9.50167 84.2898 9.55833C84.3125 9.615 84.3238 9.72267 84.3238 9.88133C84.3012 9.99467 84.2558 10.1363 84.1878 10.3063C84.1312 10.465 84.0632 10.6293 83.9838 10.7993C83.9045 10.958 83.8252 11.094 83.7458 11.2073C83.6778 11.3207 83.6212 11.3773 83.5758 11.3773C83.3152 11.4567 83.1848 11.3207 83.1848 10.9693C83.1848 10.89 83.1622 10.8163 83.1168 10.7483C83.0828 10.669 83.0658 10.6293 83.0658 10.6293C83.0658 10.5953 83.0715 10.5387 83.0828 10.4593C83.1055 10.3687 83.1395 10.2837 83.1848 10.2043C83.2415 10.091 83.2528 10.006 83.2188 9.94933C83.1962 9.89267 83.1225 9.88133 82.9978 9.91533C82.9638 9.938 82.8732 10.006 82.7258 10.1193C82.5785 10.2327 82.4198 10.363 82.2498 10.5103C82.0912 10.6463 81.9495 10.7767 81.8248 10.9013C81.7002 11.026 81.6378 11.1053 81.6378 11.1393C81.6378 11.1393 81.6152 11.1903 81.5698 11.2923C81.5245 11.383 81.4395 11.502 81.3148 11.6493C81.2355 11.7627 81.1618 11.876 81.0938 11.9893C81.0372 12.0913 81.0088 12.1537 81.0088 12.1763C81.0088 12.2217 81.0032 12.2727 80.9918 12.3293C80.9918 12.3747 80.9635 12.3973 80.9068 12.3973C80.9068 12.3973 80.8898 12.4483 80.8558 12.5503C80.8218 12.6523 80.7595 12.7827 80.6688 12.9413C80.6235 13.0547 80.5668 13.1737 80.4988 13.2983C80.4308 13.4117 80.3742 13.491 80.3288 13.5363H80.3458C80.3458 13.5363 80.3175 13.61 80.2608 13.7573C80.2155 13.8933 80.1645 14.0407 80.1078 14.1993C80.0512 14.3467 80.0228 14.4317 80.0228 14.4543C80.0228 14.4997 80.1022 14.5223 80.2608 14.5223C80.4308 14.5223 80.6292 14.5053 80.8558 14.4713C81.0825 14.426 81.2865 14.3807 81.4678 14.3353C81.6265 14.29 81.7342 14.2673 81.7908 14.2673C81.8475 14.2673 81.9608 14.29 82.1308 14.3353C82.2215 14.392 82.2952 14.477 82.3518 14.5903C82.4198 14.6923 82.4651 14.7943 82.4878 14.8963C82.5218 14.987 82.5218 15.055 82.4878 15.1003C82.4765 15.1457 82.3518 15.208 82.1138 15.2873C81.8758 15.3667 81.6378 15.429 81.3998 15.4743C81.1958 15.5197 80.9465 15.5707 80.6518 15.6273C80.3685 15.684 80.1135 15.735 79.8868 15.7803C79.6602 15.8257 79.5468 15.8653 79.5468 15.8993C79.5015 15.8993 79.4618 15.9277 79.4278 15.9843C79.3938 16.0297 79.3768 16.0693 79.3768 16.1033C79.3768 16.262 79.3542 16.381 79.3088 16.4603C79.2862 16.5283 79.2465 16.6643 79.1898 16.8683C79.1332 17.0723 79.0708 17.299 79.0028 17.5483C78.9461 17.7977 78.8951 18.0243 78.8498 18.2283C78.8158 18.4323 78.7988 18.5683 78.7988 18.6363C78.7308 18.7157 78.6912 18.8177 78.6798 18.9423C78.6685 19.0557 78.6628 19.1577 78.6628 19.2483C78.6175 19.339 78.5892 19.424 78.5778 19.5033C78.5665 19.5713 78.5608 19.628 78.5608 19.6733C78.5608 19.6847 78.5608 19.7073 78.5608 19.7413C78.5608 19.7753 78.5551 19.8093 78.5438 19.8433C78.5325 19.9567 78.5155 20.104 78.4928 20.2853C78.4815 20.478 78.4758 20.665 78.4758 20.8463L78.4248 21.3393C78.4135 21.4867 78.3965 21.6113 78.3738 21.7133C78.3512 21.8267 78.3115 21.9117 78.2548 21.9683ZM76.7078 14.9983C76.7532 14.9983 76.9005 14.987 77.1498 14.9643C77.3992 14.9303 77.6825 14.8907 77.9998 14.8453C78.3285 14.8 78.6232 14.7603 78.8838 14.7263L78.9858 14.5393C79.1558 14.0633 79.2975 13.6667 79.4108 13.3493C79.5242 13.0207 79.6375 12.7373 79.7508 12.4993L79.7848 12.3463C79.7848 12.3237 79.8075 12.2557 79.8528 12.1423C79.9095 12.029 79.9378 11.9157 79.9378 11.8023C80.0172 11.417 80.0568 11.1167 80.0568 10.9013C80.0681 10.686 80.0285 10.533 79.9378 10.4423C79.8585 10.3403 79.7168 10.2893 79.5128 10.2893C79.4562 10.278 79.3655 10.295 79.2408 10.3403C79.1275 10.3857 79.0198 10.4423 78.9178 10.5103C78.8271 10.567 78.7818 10.6237 78.7818 10.6803V10.7483C78.7478 10.737 78.6401 10.8333 78.4588 11.0373C78.2888 11.23 78.0962 11.468 77.8808 11.7513C77.6768 12.0233 77.5068 12.2727 77.3708 12.4993C77.2802 12.692 77.1725 12.9583 77.0478 13.2983C76.9232 13.6383 76.7645 14.0577 76.5718 14.5563L76.4358 14.9643L76.7078 14.9983Z" fill="white" fill-opacity="0.6"/>
<defs>
<filter id="filter0_d_60_131" x="0" y="0" width="102" height="38" filterUnits="userSpaceOnUse" color-interpolation-filters="sRGB">
<feFlood flood-opacity="0" result="BackgroundImageFix"/>
<feColorMatrix in="SourceAlpha" type="matrix" values="0 0 0 0 0 0 0 0 0 0 0 0 0 0 0 0 0 0 127 0" result="hardAlpha"/>
<feOffset dy="4"/>
<feGaussianBlur stdDeviation="2"/>
<feComposite in2="hardAlpha" operator="out"/>
<feColorMatrix type="matrix" values="0 0 0 0 0 0 0 0 0 0 0 0 0 0 0 0 0 0 0.15 0"/>
<feBlend mode="normal" in2="BackgroundImageFix" result="effect1_dropShadow_60_131"/>
<feBlend mode="normal" in="SourceGraphic" in2="effect1_dropShadow_60_131" result="shape"/>
</filter>
</defs>
</svg>
